# xmcd
#
# Track frame offsets:
#	150
#	24867
#	40127
#	79775
#	104465
#	119697
#	144280
#
# Disc length: 2222 seconds
#
# Revision: 1
# Processed by: cddbd v1.4PL0 Copyright (c) Steve Scherf et al.
# Submitted via: audiograbber 1.81.03
#
DISCID=5208ac07
DTITLE=Nynningen - För full hals
DYEAR=1900
DGENRE=Blues
TTITLE0=För full hals
TTITLE1=Så tyst det är i världen
TTITLE2=Atlantiska oceanen
TTITLE3=Vilddjurets sång
TTITLE4=Balladernas konst
TTITLE5=Neva
TTITLE6=Bolsjevikernas sång
EXTD=
EXTT0=
EXTT1=
EXTT2=
EXTT3=
EXTT4=
EXTT5=
EXTT6=
PLAYORDER=
